<?xml version="1.0" standalone="no"?><svg xmlns="http://www.w3.org/2000/svg" viewBox="0 0 1440 320"><path fill="#526D82" fill-opacity="1" d="M0,256L6.2,245.3C12.3,235,25,213,37,176C49.2,139,62,85,74,69.3C86.2,53,98,75,111,112C123.1,149,135,203,148,229.3C160,256,172,256,185,240C196.9,224,209,192,222,197.3C233.8,203,246,245,258,229.3C270.8,213,283,139,295,128C307.7,117,320,171,332,181.3C344.6,192,357,160,369,160C381.5,160,394,192,406,213.3C418.5,235,431,245,443,256C455.4,267,468,277,480,277.3C492.3,277,505,267,517,234.7C529.2,203,542,149,554,154.7C566.2,160,578,224,591,234.7C603.1,245,615,203,628,208C640,213,652,267,665,272C676.9,277,689,235,702,208C713.8,181,726,171,738,160C750.8,149,763,139,775,160C787.7,181,800,235,812,250.7C824.6,267,837,245,849,213.3C861.5,181,874,139,886,144C898.5,149,911,203,923,192C935.4,181,948,107,960,90.7C972.3,75,985,117,997,144C1009.2,171,1022,181,1034,192C1046.2,203,1058,213,1071,181.3C1083.1,149,1095,75,1108,58.7C1120,43,1132,85,1145,128C1156.9,171,1169,213,1182,224C1193.8,235,1206,213,1218,218.7C1230.8,224,1243,256,1255,250.7C1267.7,245,1280,203,1292,197.3C1304.6,192,1317,224,1329,208C1341.5,192,1354,128,1366,106.7C1378.5,85,1391,107,1403,144C1415.4,181,1428,235,1434,261.3L1440,288L1440,0L1433.8,0C1427.7,0,1415,0,1403,0C1390.8,0,1378,0,1366,0C1353.8,0,1342,0,1329,0C1316.9,0,1305,0,1292,0C1280,0,1268,0,1255,0C1243.1,0,1231,0,1218,0C1206.2,0,1194,0,1182,0C1169.2,0,1157,0,1145,0C1132.3,0,1120,0,1108,0C1095.4,0,1083,0,1071,0C1058.5,0,1046,0,1034,0C1021.5,0,1009,0,997,0C984.6,0,972,0,960,0C947.7,0,935,0,923,0C910.8,0,898,0,886,0C873.8,0,862,0,849,0C836.9,0,825,0,812,0C800,0,788,0,775,0C763.1,0,751,0,738,0C726.2,0,714,0,702,0C689.2,0,677,0,665,0C652.3,0,640,0,628,0C615.4,0,603,0,591,0C578.5,0,566,0,554,0C541.5,0,529,0,517,0C504.6,0,492,0,480,0C467.7,0,455,0,443,0C430.8,0,418,0,406,0C393.8,0,382,0,369,0C356.9,0,345,0,332,0C320,0,308,0,295,0C283.1,0,271,0,258,0C246.2,0,234,0,222,0C209.2,0,197,0,185,0C172.3,0,160,0,148,0C135.4,0,123,0,111,0C98.5,0,86,0,74,0C61.5,0,49,0,37,0C24.6,0,12,0,6,0L0,0Z"></path></svg>