<?xml version="1.0" standalone="no"?><svg xmlns="http://www.w3.org/2000/svg" viewBox="0 0 1440 320"><path fill="#526D82" fill-opacity="1" d="M0,128L8.3,133.3C16.6,139,33,149,50,176C66.2,203,83,245,99,234.7C115.9,224,132,160,149,117.3C165.5,75,182,53,199,58.7C215.2,64,232,96,248,106.7C264.8,117,281,107,298,133.3C314.5,160,331,224,348,234.7C364.1,245,381,203,397,160C413.8,117,430,75,447,90.7C463.4,107,480,181,497,202.7C513.1,224,530,192,546,176C562.8,160,579,160,596,138.7C612.4,117,629,75,646,69.3C662.1,64,679,96,695,101.3C711.7,107,728,85,745,101.3C761.4,117,778,171,794,170.7C811,171,828,117,844,122.7C860.7,128,877,192,894,186.7C910.3,181,927,107,943,90.7C960,75,977,117,993,112C1009.7,107,1026,53,1043,26.7C1059.3,0,1076,0,1092,48C1109,96,1126,192,1142,234.7C1158.6,277,1175,267,1192,234.7C1208.3,203,1225,149,1241,133.3C1257.9,117,1274,139,1291,144C1307.6,149,1324,139,1341,117.3C1357.2,96,1374,64,1390,58.7C1406.9,53,1423,75,1432,85.3L1440,96L1440,320L1431.7,320C1423.4,320,1407,320,1390,320C1373.8,320,1357,320,1341,320C1324.1,320,1308,320,1291,320C1274.5,320,1258,320,1241,320C1224.8,320,1208,320,1192,320C1175.2,320,1159,320,1142,320C1125.5,320,1109,320,1092,320C1075.9,320,1059,320,1043,320C1026.2,320,1010,320,993,320C976.6,320,960,320,943,320C926.9,320,910,320,894,320C877.2,320,861,320,844,320C827.6,320,811,320,794,320C777.9,320,761,320,745,320C728.3,320,712,320,695,320C678.6,320,662,320,646,320C629,320,612,320,596,320C579.3,320,563,320,546,320C529.7,320,513,320,497,320C480,320,463,320,447,320C430.3,320,414,320,397,320C380.7,320,364,320,348,320C331,320,314,320,298,320C281.4,320,265,320,248,320C231.7,320,215,320,199,320C182.1,320,166,320,149,320C132.4,320,116,320,99,320C82.8,320,66,320,50,320C33.1,320,17,320,8,320L0,320Z"></path></svg>